<svg width="124" height="124" viewBox="0 0 124 124" fill="none" xmlns="http://www.w3.org/2000/svg">
<g filter="url(#filter0_d_3_153)">
<circle cx="58" cy="58" r="46" fill="black"/>
</g>
<path d="M63.5197 44.8484C63.4557 45.2484 63.4237 45.6484 63.4237 46.0484C63.4237 49.6484 66.3356 52.5587 69.9196 52.5587C70.3196 52.5587 70.7036 52.5123 71.1036 52.4483V65.3585C71.1036 70.784 67.9036 74 62.4637 74H50.6415C45.2 74 42 70.784 42 65.3585V53.5203C42 48.0804 45.2 44.8484 50.6415 44.8484H63.5197ZM63.8413 54.5763C63.4077 54.5283 62.9773 54.7203 62.7197 55.0723L58.8494 60.0802L54.4158 56.5923C54.1438 56.3843 53.8238 56.3027 53.5038 56.3363C53.1854 56.3843 52.8974 56.5587 52.7038 56.8147L47.9695 62.9762L47.8719 63.1202C47.5999 63.6306 47.7279 64.2865 48.2079 64.6401C48.4319 64.7841 48.6719 64.8801 48.9439 64.8801C49.3135 64.8961 49.6639 64.7025 49.8879 64.4001L53.9038 59.2306L58.4638 62.6562L58.6078 62.7506C59.1198 63.0226 59.7597 62.8962 60.1277 62.4146L64.7517 56.4483L64.6877 56.4803C64.9437 56.1283 64.9917 55.6803 64.8157 55.2803C64.6413 54.8803 64.2557 54.6083 63.8413 54.5763ZM70.1437 42C72.2717 42 73.9997 43.728 73.9997 45.8559C73.9997 47.9839 72.2717 49.7119 70.1437 49.7119C68.0158 49.7119 66.2878 47.9839 66.2878 45.8559C66.2878 43.728 68.0158 42 70.1437 42Z" fill="#13B383"/>
<defs>
<filter id="filter0_d_3_153" x="0" y="0" width="124" height="124" filterUnits="userSpaceOnUse" color-interpolation-filters="sRGB">
<feFlood flood-opacity="0" result="BackgroundImageFix"/>
<feColorMatrix in="SourceAlpha" type="matrix" values="0 0 0 0 0 0 0 0 0 0 0 0 0 0 0 0 0 0 127 0" result="hardAlpha"/>
<feOffset dx="4" dy="4"/>
<feGaussianBlur stdDeviation="8"/>
<feComposite in2="hardAlpha" operator="out"/>
<feColorMatrix type="matrix" values="0 0 0 0 0 0 0 0 0 0 0 0 0 0 0 0 0 0 0.25 0"/>
<feBlend mode="normal" in2="BackgroundImageFix" result="effect1_dropShadow_3_153"/>
<feBlend mode="normal" in="SourceGraphic" in2="effect1_dropShadow_3_153" result="shape"/>
</filter>
</defs>
</svg>
