<svg width="64" height="64" viewBox="0 0 64 64" fill="none" xmlns="http://www.w3.org/2000/svg">
<circle opacity="0.1" cx="32" cy="32" r="32" fill="#13B383"/>
<path d="M31.7392 35.1507C36.6716 35.1507 40.8831 35.9327 40.8831 39.0618C40.8831 42.1896 36.6986 43 31.7392 43C26.8069 43 22.5954 42.218 22.5954 39.0902C22.5954 35.9611 26.7799 35.1507 31.7392 35.1507ZM39.6254 33.2665C41.5111 33.2316 43.5383 33.4905 44.2874 33.6743C45.8745 33.9863 46.9184 34.6233 47.3508 35.5489C47.7164 36.3089 47.7164 37.1905 47.3508 37.9492C46.6892 39.3849 44.5565 39.8458 43.7275 39.9649C43.5563 39.9908 43.4186 39.8419 43.4366 39.6697C43.8601 35.6913 40.4917 33.8051 39.6203 33.3714C39.5829 33.352 39.5752 33.3222 39.5791 33.3041C39.5817 33.2911 39.5971 33.2704 39.6254 33.2665ZM23.6455 33.2638L24.0005 33.267C24.0289 33.2709 24.043 33.2916 24.0456 33.3033C24.0495 33.3227 24.0417 33.3512 24.0057 33.3719C23.133 33.8056 19.7646 35.6919 20.188 39.6689C20.2061 39.8424 20.0696 39.99 19.8984 39.9654C19.0695 39.8463 16.9367 39.3854 16.2751 37.9497C15.9083 37.1897 15.9083 36.3094 16.2751 35.5494C16.7076 34.6238 17.7502 33.9868 19.3372 33.6735C20.0876 33.491 22.1136 33.2321 24.0005 33.267L23.6455 33.2638ZM31.7392 20C35.0974 20 37.7901 22.7058 37.7901 26.0847C37.7901 29.4624 35.0974 32.1707 31.7392 32.1707C28.3811 32.1707 25.6884 29.4624 25.6884 26.0847C25.6884 22.7058 28.3811 20 31.7392 20ZM39.9536 21.0147C43.1972 21.0147 45.7445 24.0843 44.877 27.5034C44.2913 29.8052 42.1714 31.3342 39.8095 31.272C39.5726 31.2655 39.3397 31.2435 39.1144 31.2047C38.951 31.1762 38.8686 30.9911 38.9613 30.8539C39.8622 29.5204 40.3758 27.9164 40.3758 26.1945C40.3758 24.3976 39.8146 22.7223 38.8403 21.3487C38.8094 21.306 38.7862 21.24 38.8171 21.1908C38.8428 21.1507 38.8905 21.1299 38.9355 21.1196C39.2637 21.0523 39.601 21.0147 39.9536 21.0147ZM23.6704 21.0146C24.0231 21.0146 24.3603 21.0521 24.6898 21.1195C24.7336 21.1298 24.7825 21.1518 24.8082 21.1907C24.8378 21.2399 24.816 21.3059 24.7851 21.3486C23.8107 22.7222 23.2495 24.3974 23.2495 26.1944C23.2495 27.9162 23.7631 29.5203 24.6641 30.8537C24.7567 30.991 24.6744 31.1761 24.5109 31.2046C24.2844 31.2447 24.0527 31.2654 23.8158 31.2719C21.4539 31.334 19.334 29.8051 18.7484 27.5032C17.8795 24.0841 20.4268 21.0146 23.6704 21.0146Z" fill="#13B383"/>
</svg>
