<svg width="64" height="64" viewBox="0 0 64 64" fill="none" xmlns="http://www.w3.org/2000/svg">
<circle opacity="0.1" cx="32" cy="32" r="32" fill="#13B383"/>
<path d="M38.55 32.5598C40.0992 32.5598 41.5019 32.6478 42.3648 32.8117C42.3782 32.8117 43.1678 32.9741 43.431 33.0788C43.8108 33.2427 44.1323 33.5387 44.3372 33.909C44.4838 34.2049 44.5556 34.5176 44.5556 34.8439C44.5421 35.1839 44.3223 35.8228 44.2191 36.0747C43.5775 37.7351 41.472 40.9086 40.1874 42.1258C39.9826 42.3322 39.7343 42.5553 39.676 42.6145C39.353 42.8664 38.9597 43 38.5365 43C38.1552 43 37.7753 42.8816 37.4688 42.6433C37.3095 42.5295 37.0771 42.303 36.9708 42.1969L36.914 42.1395C35.583 40.895 33.5822 37.7943 32.9392 36.222C32.9254 36.222 32.6051 35.4377 32.5403 34.9644L32.5294 34.8439V34.7847C32.5294 34.1017 32.9092 33.4643 33.5239 33.138C33.8603 32.9604 34.8383 32.7965 34.8533 32.7813C35.7296 32.6478 37.074 32.5598 38.55 32.5598ZM25.0126 32.6379C25.625 32.6379 26.1291 33.1051 26.1979 33.7077L26.206 33.849L26.5335 39.6996C26.5335 40.5525 25.853 41.2431 25.0126 41.2431C24.2247 41.2431 23.5761 40.6361 23.4982 39.8575L23.4903 39.6996L23.8193 33.849C23.8193 33.1797 24.3531 32.6379 25.0126 32.6379ZM25.0205 20C25.3989 20 25.7787 20.1184 26.0868 20.3551C26.2195 20.4509 26.403 20.6244 26.522 20.741L26.6416 20.8605C27.971 22.1065 29.9734 25.2056 30.6164 26.7779C30.6287 26.7779 30.9502 27.5635 31.0152 28.0369L31.0261 28.1574V28.2166C31.0261 28.8981 30.6448 29.5355 30.0317 29.8618C29.6952 30.0409 28.7172 30.2033 28.7023 30.2184C27.8259 30.352 26.4816 30.44 25.0056 30.44C23.4563 30.44 22.0536 30.352 21.1908 30.1881C21.1758 30.1881 20.3877 30.0257 20.1246 29.921C19.7447 29.7586 19.4232 29.4611 19.2183 29.0908C19.0718 28.7949 19 28.4822 19 28.1574C19.0135 27.816 19.2333 27.1786 19.335 26.9266C19.978 25.2648 22.0821 22.0913 23.3681 20.8757C23.573 20.6678 23.8212 20.4447 23.8795 20.3855C24.2011 20.1336 24.5958 20 25.0205 20ZM38.5432 21.7569C39.3311 21.7569 39.9784 22.3639 40.0562 23.1425L40.0641 23.3004L39.7366 29.1512C39.7366 29.8205 39.2027 30.3623 38.5432 30.3623C37.9309 30.3623 37.4268 29.8951 37.3579 29.2925L37.3499 29.1512L37.0209 23.3004C37.0209 22.4475 37.7028 21.7569 38.5432 21.7569Z" fill="#13B383"/>
</svg>
