<svg width="54" height="54" viewBox="0 0 54 54" fill="none" xmlns="http://www.w3.org/2000/svg">
<rect x="0.311646" width="53.2664" height="53.2664" rx="10.6533" fill="black"/>
<path d="M33.4433 27.5821C34.8306 27.5821 36.0867 27.661 36.8594 27.8078C36.8715 27.8078 37.5785 27.9532 37.8142 28.047C38.1543 28.1937 38.4423 28.4588 38.6257 28.7904C38.757 29.0554 38.8212 29.3354 38.8212 29.6276C38.8092 29.932 38.6123 30.5042 38.5199 30.7298C37.9454 32.2166 36.0599 35.0585 34.9096 36.1485C34.7262 36.3333 34.5039 36.5331 34.4516 36.5861C34.1624 36.8117 33.8102 36.9313 33.4312 36.9313C33.0897 36.9313 32.7496 36.8253 32.4751 36.6119C32.3325 36.51 32.1243 36.3071 32.0291 36.2121L31.9783 36.1607C30.7864 35.0463 28.9947 32.2696 28.4188 30.8616C28.4066 30.8616 28.1197 30.1593 28.0617 29.7355L28.0519 29.6276V29.5746C28.0519 28.963 28.392 28.3922 28.9424 28.1C29.2437 27.9409 30.1195 27.7942 30.1329 27.7806C30.9177 27.661 32.1215 27.5821 33.4433 27.5821ZM21.3207 27.6521C21.869 27.6521 22.3204 28.0705 22.3821 28.6101L22.3893 28.7366L22.6826 33.9758C22.6826 34.7396 22.0733 35.358 21.3207 35.358C20.6151 35.358 20.0343 34.8145 19.9645 34.1172L19.9574 33.9758L20.252 28.7366C20.252 28.1373 20.7301 27.6521 21.3207 27.6521ZM21.3278 16.335C21.6666 16.335 22.0067 16.441 22.2826 16.653C22.4014 16.7388 22.5658 16.8941 22.6723 16.9985L22.7794 17.1055C23.9699 18.2213 25.763 20.9965 26.3388 22.4045C26.3499 22.4045 26.6377 23.108 26.6959 23.5319L26.7057 23.6399V23.6929C26.7057 24.3031 26.3643 24.8739 25.8152 25.1661C25.5139 25.3265 24.6381 25.4719 24.6247 25.4855C23.84 25.6051 22.6361 25.6839 21.3144 25.6839C19.927 25.6839 18.6709 25.6051 17.8982 25.4583C17.8848 25.4583 17.1791 25.3129 16.9434 25.2191C16.6033 25.0737 16.3154 24.8073 16.1319 24.4757C16.0007 24.2107 15.9364 23.9307 15.9364 23.6399C15.9485 23.3341 16.1453 22.7633 16.2364 22.5377C16.8122 21.0495 18.6964 18.2077 19.848 17.1191C20.0315 16.9329 20.2538 16.7332 20.306 16.6802C20.5939 16.4546 20.9474 16.335 21.3278 16.335ZM33.4372 17.9083C34.1428 17.9083 34.7224 18.4518 34.7921 19.1491L34.7991 19.2905L34.5059 24.5298C34.5059 25.1291 34.0278 25.6143 33.4372 25.6143C32.8889 25.6143 32.4375 25.196 32.3758 24.6563L32.3686 24.5298L32.074 19.2905C32.074 18.5267 32.6846 17.9083 33.4372 17.9083Z" fill="#13B383"/>
</svg>
