<svg width="54" height="54" viewBox="0 0 54 54" fill="none" xmlns="http://www.w3.org/2000/svg">
<rect x="0.295898" width="53.2544" height="53.2544" rx="10.6509" fill="black"/>
<path d="M25.7091 32.2432C25.6432 32.179 25.3615 31.9367 25.1297 31.7109C23.6721 30.3872 21.2863 26.9341 20.5581 25.1267C20.4411 24.8523 20.1934 24.1583 20.1775 23.7876C20.1775 23.4323 20.2593 23.0936 20.4252 22.7704C20.6569 22.3676 21.0216 22.0444 21.4522 21.8673C21.751 21.7533 22.6451 21.5762 22.661 21.5762C23.6392 21.3992 25.2286 21.3018 26.985 21.3018C28.6584 21.3018 30.1831 21.3992 31.176 21.5441C31.1919 21.5607 32.303 21.7378 32.6836 21.9315C33.3789 22.2868 33.8106 22.9807 33.8106 23.7234V23.7876C33.7936 24.2712 33.3619 25.2883 33.346 25.2883C32.6166 26.9983 30.3478 30.3717 28.8402 31.7275C28.8402 31.7275 28.4528 32.1093 28.2108 32.2753C27.8632 32.5343 27.4326 32.6627 27.002 32.6627C26.5214 32.6627 26.0738 32.5177 25.7091 32.2432Z" fill="#13B383"/>
</svg>
