<svg width="78" height="14" viewBox="0 0 78 14" fill="none" xmlns="http://www.w3.org/2000/svg">
<path d="M13.1531 4.98732L9.11106 4.39988L7.30416 0.736747C7.25481 0.636452 7.17362 0.555261 7.07333 0.50591C6.82179 0.381736 6.51613 0.485215 6.39037 0.736747L4.58348 4.39988L0.541449 4.98732C0.430011 5.00324 0.328124 5.05578 0.250117 5.13538C0.155811 5.23231 0.103845 5.36271 0.105636 5.49794C0.107427 5.63316 0.162829 5.76214 0.259669 5.85654L3.18413 8.70777L2.49321 12.7339C2.47701 12.8275 2.48737 12.9239 2.52313 13.0119C2.55888 13.1 2.6186 13.1763 2.6955 13.2321C2.77241 13.288 2.86342 13.3212 2.95823 13.3279C3.05303 13.3347 3.14784 13.3147 3.23189 13.2704L6.84727 11.3696L10.4626 13.2704C10.5613 13.3229 10.676 13.3404 10.7858 13.3213C11.0628 13.2736 11.2491 13.0109 11.2013 12.7339L10.5104 8.70777L13.4349 5.85654C13.5145 5.77853 13.567 5.67665 13.5829 5.56521C13.6259 5.28661 13.4317 5.02871 13.1531 4.98732Z" fill="#C1C419"/>
<path d="M29.037 4.98732L24.995 4.39988L23.1881 0.736747C23.1387 0.636452 23.0575 0.555261 22.9572 0.50591C22.7057 0.381736 22.4 0.485215 22.2743 0.736747L20.4674 4.39988L16.4254 4.98732C16.3139 5.00324 16.212 5.05578 16.134 5.13538C16.0397 5.23231 15.9878 5.36271 15.9895 5.49794C15.9913 5.63316 16.0467 5.76214 16.1436 5.85654L19.068 8.70777L18.3771 12.7339C18.3609 12.8275 18.3713 12.9239 18.407 13.0119C18.4428 13.1 18.5025 13.1763 18.5794 13.2321C18.6563 13.288 18.7473 13.3212 18.8421 13.3279C18.9369 13.3347 19.0317 13.3147 19.1158 13.2704L22.7312 11.3696L26.3466 13.2704C26.4453 13.3229 26.5599 13.3404 26.6697 13.3213C26.9467 13.2736 27.133 13.0109 27.0852 12.7339L26.3943 8.70777L29.3188 5.85654C29.3984 5.77853 29.4509 5.67665 29.4668 5.56521C29.5098 5.28661 29.3156 5.02871 29.037 4.98732Z" fill="#C1C419"/>
<path d="M60.8047 4.98732L56.7627 4.39988L54.9558 0.736747C54.9064 0.636452 54.8252 0.555261 54.7249 0.50591C54.4734 0.381736 54.1677 0.485215 54.042 0.736747L52.2351 4.39988L48.1931 4.98732C48.0816 5.00324 47.9797 5.05578 47.9017 5.13538C47.8074 5.23231 47.7555 5.36271 47.7572 5.49794C47.759 5.63316 47.8144 5.76214 47.9113 5.85654L50.8357 8.70777L50.1448 12.7339C50.1286 12.8275 50.139 12.9239 50.1747 13.0119C50.2105 13.1 50.2702 13.1763 50.3471 13.2321C50.424 13.288 50.515 13.3212 50.6098 13.3279C50.7046 13.3347 50.7994 13.3147 50.8835 13.2704L54.4989 11.3696L58.1143 13.2704C58.213 13.3229 58.3276 13.3404 58.4374 13.3213C58.7144 13.2736 58.9007 13.0109 58.8529 12.7339L58.162 8.70777L61.0865 5.85654C61.1661 5.77853 61.2186 5.67665 61.2345 5.56521C61.2775 5.28661 61.0833 5.02871 60.8047 4.98732Z" fill="#C1C419"/>
<path d="M44.9208 4.98732L40.8788 4.39988L39.0719 0.736747C39.0225 0.636452 38.9413 0.555261 38.841 0.50591C38.5895 0.381736 38.2838 0.485215 38.1581 0.736747L36.3512 4.39988L32.3091 4.98732C32.1977 5.00324 32.0958 5.05578 32.0178 5.13538C31.9235 5.23231 31.8715 5.36271 31.8733 5.49794C31.8751 5.63316 31.9305 5.76214 32.0274 5.85654L34.9518 8.70777L34.2609 12.7339C34.2447 12.8275 34.2551 12.9239 34.2908 13.0119C34.3266 13.1 34.3863 13.1763 34.4632 13.2321C34.5401 13.288 34.6311 13.3212 34.7259 13.3279C34.8207 13.3347 34.9155 13.3147 34.9996 13.2704L38.615 11.3696L42.2303 13.2704C42.329 13.3229 42.4437 13.3404 42.5535 13.3213C42.8305 13.2736 43.0168 13.0109 42.969 12.7339L42.2781 8.70777L45.2026 5.85654C45.2822 5.77853 45.3347 5.67665 45.3506 5.56521C45.3936 5.28661 45.1994 5.02871 44.9208 4.98732Z" fill="#C1C419"/>
<path d="M76.6884 4.98732L72.6463 4.39988L70.8394 0.736747C70.7901 0.636452 70.7089 0.555261 70.6086 0.50591C70.3571 0.381736 70.0514 0.485215 69.9256 0.736747L68.1188 4.39988L64.0767 4.98732C63.9653 5.00324 63.8634 5.05578 63.7854 5.13538C63.6911 5.23231 63.6391 5.36271 63.6409 5.49794C63.6427 5.63316 63.6981 5.76214 63.7949 5.85654L66.7194 8.70777L66.0285 12.7339C66.0123 12.8275 66.0227 12.9239 66.0584 13.0119C66.0942 13.1 66.1539 13.1763 66.2308 13.2321C66.3077 13.288 66.3987 13.3212 66.4935 13.3279C66.5883 13.3347 66.6831 13.3147 66.7672 13.2704L70.3825 11.3696L73.9979 13.2704C74.0966 13.3229 74.2112 13.3404 74.3211 13.3213C74.5981 13.2736 74.7844 13.0109 74.7366 12.7339L74.0457 8.70777L76.9701 5.85654C77.0497 5.77853 77.1023 5.67665 77.1182 5.56521C77.1612 5.28661 76.967 5.02871 76.6884 4.98732Z" fill="#C1C419"/>
</svg>
