<svg width="64" height="64" viewBox="0 0 64 64" fill="none" xmlns="http://www.w3.org/2000/svg">
<circle opacity="0.1" cx="32" cy="32" r="32" fill="#13B383"/>
<path d="M29.7904 39.4093C29.6976 39.3189 29.3008 38.9775 28.9744 38.6595C26.9216 36.7953 23.5616 31.9322 22.536 29.3868C22.3712 29.0003 22.0224 28.023 22 27.5008C22 27.0005 22.1152 26.5235 22.3488 26.0684C22.6752 25.501 23.1888 25.0459 23.7952 24.7965C24.216 24.6359 25.4752 24.3866 25.4976 24.3866C26.8752 24.1372 29.1136 24 31.5872 24C33.944 24 36.0912 24.1372 37.4896 24.3414C37.512 24.3647 39.0768 24.6141 39.6128 24.8869C40.592 25.3872 41.2 26.3645 41.2 27.4104V27.5008C41.176 28.182 40.568 29.6144 40.5456 29.6144C39.5184 32.0226 36.3232 36.7735 34.2 38.6829C34.2 38.6829 33.6544 39.2207 33.3136 39.4545C32.824 39.8192 32.2176 40 31.6112 40C30.9344 40 30.304 39.7958 29.7904 39.4093Z" fill="#13B383"/>
</svg>
