<svg width="150" height="27" viewBox="0 0 150 27" fill="none" xmlns="http://www.w3.org/2000/svg">
<path d="M4.265 24V13.78H15.535V24H19.49V0.549999H15.535V10.28H4.265V0.549999H0.31V24H4.265ZM27.7667 24.35C31.3367 24.35 32.9817 21.69 33.5067 19.45V20.71C33.5067 23.16 34.9417 24 36.7617 24H39.1767V20.64H38.0917C37.4617 20.64 37.1817 20.395 37.1817 19.625V13.22C37.1817 9.02 34.8017 6.605 30.5667 6.605C26.7867 6.605 24.1267 8.565 22.7967 10.385L25.1417 13.185C26.1217 11.4 27.9067 10.07 30.1817 10.07C32.5267 10.07 33.2967 11.225 33.4367 12.94L27.7317 15.355C24.9667 16.44 23.2867 17.91 23.2867 20.325C23.2867 22.775 24.9667 24.35 27.7667 24.35ZM27.0667 19.73C27.0667 18.855 27.6617 18.26 29.1317 17.595L33.5067 15.635V17.455C33.5067 19.765 31.7567 21.305 29.1667 21.305C27.7317 21.305 27.0667 20.71 27.0667 19.73ZM52.7794 26.66V24H41.0194V26.66H52.7794ZM62.3552 24L66.1002 10.105L67.4652 3.56L68.8302 10.105L72.5052 24H77.4752L83.6702 0.549999H79.1902L76.0752 14.2L74.9902 20.815L73.6602 14.445L70.0552 0.549999H64.9452L61.2702 14.445L59.9052 20.815L58.8552 14.2L55.8102 0.549999H51.2602L57.3852 24H62.3552Z" fill="#13B383"/>
<path d="M89.7003 24.35C93.2703 24.35 94.9153 21.69 95.4403 19.45V20.71C95.4403 23.16 96.8753 24 98.6953 24H101.11V20.64H100.025C99.3953 20.64 99.1153 20.395 99.1153 19.625V13.22C99.1153 9.02 96.7353 6.605 92.5003 6.605C88.7203 6.605 86.0603 8.565 84.7303 10.385L87.0753 13.185C88.0553 11.4 89.8403 10.07 92.1153 10.07C94.4603 10.07 95.2303 11.225 95.3703 12.94L89.6653 15.355C86.9003 16.44 85.2203 17.91 85.2203 20.325C85.2203 22.775 86.9003 24.35 89.7003 24.35ZM89.0003 19.73C89.0003 18.855 89.5953 18.26 91.0653 17.595L95.4403 15.635V17.455C95.4403 19.765 93.6903 21.305 91.1003 21.305C89.6653 21.305 89.0003 20.71 89.0003 19.73ZM108.028 24V0.549999H104.108V24H108.028ZM116.094 24V0.549999H112.174V24H116.094ZM127.801 24.35C131.581 24.35 133.891 22.635 135.186 20.675L132.771 18.155C132.141 19.59 130.811 21.13 127.836 21.13C125.141 21.13 123.356 19.485 123.146 16.44H135.326C135.396 16.09 135.466 15.355 135.466 14.725C135.466 10 132.631 6.605 127.521 6.605C122.726 6.605 119.401 10.14 119.401 15.495C119.401 20.815 122.726 24.35 127.801 24.35ZM127.521 9.755C130.111 9.755 131.651 11.225 131.931 13.92H123.181C123.496 11.155 125.106 9.755 127.521 9.755ZM144.755 24.385C147.24 24.385 148.92 23.23 149.655 22.145L148.43 18.645C147.94 19.625 146.96 20.71 145.63 20.71C144.475 20.71 143.6 20.255 143.6 18.4V10H148.815V6.955H143.6V2.405L139.68 4.89V6.955H137.02V10H139.68V19.345C139.68 22.355 141.535 24.385 144.755 24.385Z" fill="white"/>
</svg>
