<svg width="33" height="33" viewBox="0 0 33 33" fill="none" xmlns="http://www.w3.org/2000/svg">
<path d="M16.4959 8.0339C11.8108 8.0339 8.02978 11.815 8.02978 16.5C8.02978 21.185 11.8108 24.9661 16.4959 24.9661C21.1809 24.9661 24.962 21.185 24.962 16.5C24.962 11.815 21.1809 8.0339 16.4959 8.0339ZM16.4959 22.0023C13.4661 22.0023 10.9935 19.5298 10.9935 16.5C10.9935 13.4702 13.4661 10.9977 16.4959 10.9977C19.5257 10.9977 21.9982 13.4702 21.9982 16.5C21.9982 19.5298 19.5257 22.0023 16.4959 22.0023ZM25.3087 5.71409C24.2148 5.71409 23.3315 6.59743 23.3315 7.6913C23.3315 8.78516 24.2148 9.66851 25.3087 9.66851C26.4026 9.66851 27.2859 8.78929 27.2859 7.6913C27.2862 7.43156 27.2353 7.1743 27.1361 6.93427C27.0368 6.69423 26.8912 6.47614 26.7075 6.29247C26.5239 6.10881 26.3058 5.96318 26.0657 5.86393C25.8257 5.76468 25.5684 5.71376 25.3087 5.71409ZM32.9988 16.5C32.9988 14.2215 33.0194 11.9636 32.8915 9.68915C32.7635 7.04736 32.1608 4.70278 30.229 2.77097C28.2931 0.835041 25.9526 0.236512 23.3109 0.10855C21.0323 -0.0194112 18.7744 0.00122779 16.5 0.00122779C14.2215 0.00122779 11.9636 -0.0194112 9.68915 0.10855C7.04736 0.236512 4.70278 0.839169 2.77097 2.77097C0.835041 4.70691 0.236512 7.04736 0.10855 9.68915C-0.0194112 11.9677 0.00122779 14.2256 0.00122779 16.5C0.00122779 18.7744 -0.0194112 21.0364 0.10855 23.3109C0.236512 25.9526 0.839169 28.2972 2.77097 30.229C4.70691 32.165 7.04736 32.7635 9.68915 32.8914C11.9677 33.0194 14.2256 32.9988 16.5 32.9988C18.7785 32.9988 21.0364 33.0194 23.3109 32.8914C25.9526 32.7635 28.2972 32.1608 30.229 30.229C32.165 28.2931 32.7635 25.9526 32.8915 23.3109C33.0235 21.0364 32.9988 18.7785 32.9988 16.5ZM29.3663 26.2333C29.065 26.9846 28.7017 27.546 28.1197 28.1239C27.5377 28.7059 26.9805 29.0691 26.2292 29.3704C24.058 30.2332 18.9024 30.0391 16.4959 30.0391C14.0894 30.0391 8.92964 30.2332 6.75842 29.3746C6.00716 29.0732 5.44578 28.71 4.86789 28.128C4.28587 27.546 3.92263 26.9887 3.6213 26.2375C2.76272 24.0621 2.95672 18.9065 2.95672 16.5C2.95672 14.0935 2.76272 8.93376 3.6213 6.76255C3.92263 6.01129 4.28587 5.44991 4.86789 4.87202C5.44991 4.29413 6.00716 3.92676 6.75842 3.62543C8.92964 2.76685 14.0894 2.96085 16.4959 2.96085C18.9024 2.96085 24.0621 2.76685 26.2333 3.62543C26.9846 3.92676 27.546 4.29 28.1239 4.87202C28.7059 5.45404 29.0691 6.01129 29.3704 6.76255C30.229 8.93376 30.035 14.0935 30.035 16.5C30.035 18.9065 30.229 24.0621 29.3663 26.2333Z" fill="white" fill-opacity="0.5"/>
</svg>
